<mxfile host="app.diagrams.net" agent="Mozilla/5.0 (Macintosh; Intel Mac OS X 10_15_7) AppleWebKit/537.36 (KHTML, like Gecko) Chrome/126.0.0.0 Whale/3.27.254.15 Safari/537.36" version="24.7.14">
  <diagram name="페이지-1" id="8g5Zn0wMJFjncriXSSx3">
    <mxGraphModel dx="524" dy="995" grid="1" gridSize="10" guides="1" tooltips="1" connect="1" arrows="1" fold="1" page="1" pageScale="1" pageWidth="1169" pageHeight="827" math="0" shadow="0">
      <root>
        <mxCell id="0" />
        <mxCell id="1" parent="0" />
        <mxCell id="pKS4B4EWEE2jMQGI_RAB-51" style="edgeStyle=orthogonalEdgeStyle;rounded=0;orthogonalLoop=1;jettySize=auto;html=1;entryX=0;entryY=0.5;entryDx=0;entryDy=0;strokeColor=#000000;fontColor=#000000;" parent="1" source="pKS4B4EWEE2jMQGI_RAB-52" target="pKS4B4EWEE2jMQGI_RAB-54" edge="1">
          <mxGeometry relative="1" as="geometry" />
        </mxCell>
        <mxCell id="pKS4B4EWEE2jMQGI_RAB-52" value="&lt;div&gt;&lt;font&gt;input-topic&lt;/font&gt;&lt;/div&gt;" style="rounded=0;whiteSpace=wrap;html=1;strokeColor=#000000;fontColor=#000000;" parent="1" vertex="1">
          <mxGeometry x="80" y="160" width="120" height="40" as="geometry" />
        </mxCell>
        <mxCell id="pKS4B4EWEE2jMQGI_RAB-53" style="edgeStyle=orthogonalEdgeStyle;rounded=0;orthogonalLoop=1;jettySize=auto;html=1;entryX=0;entryY=0.5;entryDx=0;entryDy=0;strokeColor=#000000;fontColor=#000000;" parent="1" source="pKS4B4EWEE2jMQGI_RAB-54" target="pKS4B4EWEE2jMQGI_RAB-55" edge="1">
          <mxGeometry relative="1" as="geometry" />
        </mxCell>
        <mxCell id="pKS4B4EWEE2jMQGI_RAB-54" value="&lt;font&gt;Agg Count&lt;/font&gt;" style="ellipse;whiteSpace=wrap;html=1;strokeColor=#000000;fontColor=#000000;" parent="1" vertex="1">
          <mxGeometry x="360" y="155" width="80" height="50" as="geometry" />
        </mxCell>
        <mxCell id="pKS4B4EWEE2jMQGI_RAB-55" value="&lt;font&gt;output-topic&lt;/font&gt;" style="rounded=0;whiteSpace=wrap;html=1;strokeColor=#000000;fontColor=#000000;" parent="1" vertex="1">
          <mxGeometry x="520" y="160" width="120" height="40" as="geometry" />
        </mxCell>
        <mxCell id="GSHHPHuIhnTSmaOaYL3V-2" style="edgeStyle=orthogonalEdgeStyle;rounded=0;orthogonalLoop=1;jettySize=auto;html=1;entryX=0;entryY=0.5;entryDx=0;entryDy=0;" parent="1" source="pKS4B4EWEE2jMQGI_RAB-57" target="GSHHPHuIhnTSmaOaYL3V-1" edge="1">
          <mxGeometry relative="1" as="geometry" />
        </mxCell>
        <mxCell id="pKS4B4EWEE2jMQGI_RAB-57" value="voter1: a&lt;div&gt;(t=1)&lt;/div&gt;" style="text;html=1;align=center;verticalAlign=middle;whiteSpace=wrap;rounded=0;fontColor=#000000;" parent="1" vertex="1">
          <mxGeometry x="80" y="245" width="80" height="30" as="geometry" />
        </mxCell>
        <mxCell id="GSHHPHuIhnTSmaOaYL3V-5" style="edgeStyle=orthogonalEdgeStyle;rounded=0;orthogonalLoop=1;jettySize=auto;html=1;entryX=0;entryY=0.5;entryDx=0;entryDy=0;" parent="1" source="pKS4B4EWEE2jMQGI_RAB-63" target="GSHHPHuIhnTSmaOaYL3V-3" edge="1">
          <mxGeometry relative="1" as="geometry" />
        </mxCell>
        <mxCell id="pKS4B4EWEE2jMQGI_RAB-63" value="voter2: b&lt;div&gt;(t=2)&lt;/div&gt;" style="text;html=1;align=center;verticalAlign=middle;whiteSpace=wrap;rounded=0;fontColor=#000000;" parent="1" vertex="1">
          <mxGeometry x="80" y="285" width="80" height="30" as="geometry" />
        </mxCell>
        <mxCell id="GSHHPHuIhnTSmaOaYL3V-6" style="edgeStyle=orthogonalEdgeStyle;rounded=0;orthogonalLoop=1;jettySize=auto;html=1;entryX=0;entryY=0.5;entryDx=0;entryDy=0;" parent="1" source="pKS4B4EWEE2jMQGI_RAB-68" target="GSHHPHuIhnTSmaOaYL3V-4" edge="1">
          <mxGeometry relative="1" as="geometry" />
        </mxCell>
        <mxCell id="pKS4B4EWEE2jMQGI_RAB-68" value="voter3: c&lt;div&gt;(t=3)&lt;/div&gt;" style="text;html=1;align=center;verticalAlign=middle;whiteSpace=wrap;rounded=0;fontColor=#000000;" parent="1" vertex="1">
          <mxGeometry x="80" y="325" width="80" height="30" as="geometry" />
        </mxCell>
        <mxCell id="pKS4B4EWEE2jMQGI_RAB-72" value="" style="shape=cylinder3;whiteSpace=wrap;html=1;boundedLbl=1;backgroundOutline=1;size=15;strokeColor=#000000;fontColor=#000000;" parent="1" vertex="1">
          <mxGeometry x="420" y="180" width="70" height="60" as="geometry" />
        </mxCell>
        <mxCell id="GSHHPHuIhnTSmaOaYL3V-10" style="edgeStyle=orthogonalEdgeStyle;rounded=0;orthogonalLoop=1;jettySize=auto;html=1;entryX=0;entryY=0.5;entryDx=0;entryDy=0;" parent="1" source="pKS4B4EWEE2jMQGI_RAB-74" target="GSHHPHuIhnTSmaOaYL3V-9" edge="1">
          <mxGeometry relative="1" as="geometry" />
        </mxCell>
        <mxCell id="pKS4B4EWEE2jMQGI_RAB-74" value="voter4: a&lt;div&gt;(t=5)&lt;/div&gt;" style="text;html=1;align=center;verticalAlign=middle;whiteSpace=wrap;rounded=0;fontColor=#000000;" parent="1" vertex="1">
          <mxGeometry x="80" y="365" width="80" height="30" as="geometry" />
        </mxCell>
        <mxCell id="GSHHPHuIhnTSmaOaYL3V-12" style="edgeStyle=orthogonalEdgeStyle;rounded=0;orthogonalLoop=1;jettySize=auto;html=1;entryX=0;entryY=0.5;entryDx=0;entryDy=0;" parent="1" source="pKS4B4EWEE2jMQGI_RAB-80" target="GSHHPHuIhnTSmaOaYL3V-11" edge="1">
          <mxGeometry relative="1" as="geometry" />
        </mxCell>
        <mxCell id="pKS4B4EWEE2jMQGI_RAB-80" value="voter5: a&lt;div&gt;(t=10)&lt;/div&gt;" style="text;html=1;align=center;verticalAlign=middle;whiteSpace=wrap;rounded=0;fontColor=#000000;" parent="1" vertex="1">
          <mxGeometry x="80" y="405" width="80" height="30" as="geometry" />
        </mxCell>
        <mxCell id="GSHHPHuIhnTSmaOaYL3V-14" style="edgeStyle=orthogonalEdgeStyle;rounded=0;orthogonalLoop=1;jettySize=auto;html=1;entryX=0;entryY=0.5;entryDx=0;entryDy=0;" parent="1" source="pKS4B4EWEE2jMQGI_RAB-81" target="GSHHPHuIhnTSmaOaYL3V-13" edge="1">
          <mxGeometry relative="1" as="geometry" />
        </mxCell>
        <mxCell id="pKS4B4EWEE2jMQGI_RAB-81" value="voter5: b&lt;div&gt;(t=8)&lt;/div&gt;" style="text;html=1;align=center;verticalAlign=middle;whiteSpace=wrap;rounded=0;fontColor=#000000;" parent="1" vertex="1">
          <mxGeometry x="80" y="445" width="80" height="30" as="geometry" />
        </mxCell>
        <mxCell id="GSHHPHuIhnTSmaOaYL3V-16" style="edgeStyle=orthogonalEdgeStyle;rounded=0;orthogonalLoop=1;jettySize=auto;html=1;entryX=0;entryY=0.5;entryDx=0;entryDy=0;" parent="1" source="pKS4B4EWEE2jMQGI_RAB-82" target="GSHHPHuIhnTSmaOaYL3V-15" edge="1">
          <mxGeometry relative="1" as="geometry" />
        </mxCell>
        <mxCell id="pKS4B4EWEE2jMQGI_RAB-82" value="voter6: c&lt;div&gt;(t=30)&lt;/div&gt;" style="text;html=1;align=center;verticalAlign=middle;whiteSpace=wrap;rounded=0;fontColor=#000000;" parent="1" vertex="1">
          <mxGeometry x="80" y="485" width="80" height="30" as="geometry" />
        </mxCell>
        <mxCell id="GSHHPHuIhnTSmaOaYL3V-19" style="edgeStyle=orthogonalEdgeStyle;rounded=0;orthogonalLoop=1;jettySize=auto;html=1;entryX=0;entryY=0.5;entryDx=0;entryDy=0;" parent="1" source="GSHHPHuIhnTSmaOaYL3V-1" target="GSHHPHuIhnTSmaOaYL3V-18" edge="1">
          <mxGeometry relative="1" as="geometry" />
        </mxCell>
        <mxCell id="GSHHPHuIhnTSmaOaYL3V-1" value="a: 1" style="text;html=1;align=center;verticalAlign=middle;whiteSpace=wrap;rounded=0;fontColor=#000000;strokeColor=default;fontSize=11;" parent="1" vertex="1">
          <mxGeometry x="360" y="240" width="80" height="40" as="geometry" />
        </mxCell>
        <mxCell id="GSHHPHuIhnTSmaOaYL3V-27" style="edgeStyle=orthogonalEdgeStyle;rounded=0;orthogonalLoop=1;jettySize=auto;html=1;entryX=0;entryY=0.5;entryDx=0;entryDy=0;" parent="1" source="GSHHPHuIhnTSmaOaYL3V-3" target="GSHHPHuIhnTSmaOaYL3V-20" edge="1">
          <mxGeometry relative="1" as="geometry" />
        </mxCell>
        <mxCell id="GSHHPHuIhnTSmaOaYL3V-3" value="a: 1&lt;div style=&quot;font-size: 11px;&quot;&gt;b: 1&lt;/div&gt;" style="text;html=1;align=center;verticalAlign=middle;whiteSpace=wrap;rounded=0;fontColor=#000000;fillColor=none;strokeColor=default;fontSize=11;" parent="1" vertex="1">
          <mxGeometry x="360" y="280" width="80" height="40" as="geometry" />
        </mxCell>
        <mxCell id="GSHHPHuIhnTSmaOaYL3V-28" style="edgeStyle=orthogonalEdgeStyle;rounded=0;orthogonalLoop=1;jettySize=auto;html=1;entryX=0;entryY=0.5;entryDx=0;entryDy=0;" parent="1" source="GSHHPHuIhnTSmaOaYL3V-4" target="GSHHPHuIhnTSmaOaYL3V-21" edge="1">
          <mxGeometry relative="1" as="geometry" />
        </mxCell>
        <mxCell id="GSHHPHuIhnTSmaOaYL3V-4" value="a: 1&lt;div style=&quot;font-size: 11px;&quot;&gt;b: 1&lt;/div&gt;&lt;div style=&quot;font-size: 11px;&quot;&gt;c: 1&lt;/div&gt;" style="text;html=1;align=center;verticalAlign=middle;whiteSpace=wrap;rounded=0;fontColor=#000000;strokeColor=default;fontSize=11;" parent="1" vertex="1">
          <mxGeometry x="360" y="320" width="80" height="40" as="geometry" />
        </mxCell>
        <mxCell id="GSHHPHuIhnTSmaOaYL3V-29" style="edgeStyle=orthogonalEdgeStyle;rounded=0;orthogonalLoop=1;jettySize=auto;html=1;entryX=0;entryY=0.5;entryDx=0;entryDy=0;" parent="1" source="GSHHPHuIhnTSmaOaYL3V-9" target="GSHHPHuIhnTSmaOaYL3V-22" edge="1">
          <mxGeometry relative="1" as="geometry" />
        </mxCell>
        <mxCell id="GSHHPHuIhnTSmaOaYL3V-9" value="a: 2&lt;div style=&quot;font-size: 11px;&quot;&gt;b: 1&lt;/div&gt;&lt;div style=&quot;font-size: 11px;&quot;&gt;c: 1&lt;/div&gt;" style="text;html=1;align=center;verticalAlign=middle;whiteSpace=wrap;rounded=0;fontColor=#000000;strokeColor=default;fontSize=11;" parent="1" vertex="1">
          <mxGeometry x="360" y="360" width="80" height="40" as="geometry" />
        </mxCell>
        <mxCell id="GSHHPHuIhnTSmaOaYL3V-30" style="edgeStyle=orthogonalEdgeStyle;rounded=0;orthogonalLoop=1;jettySize=auto;html=1;entryX=0;entryY=0.5;entryDx=0;entryDy=0;" parent="1" source="GSHHPHuIhnTSmaOaYL3V-11" target="GSHHPHuIhnTSmaOaYL3V-23" edge="1">
          <mxGeometry relative="1" as="geometry" />
        </mxCell>
        <mxCell id="GSHHPHuIhnTSmaOaYL3V-11" value="a: 3&lt;div style=&quot;font-size: 11px;&quot;&gt;b: 1&lt;/div&gt;&lt;div style=&quot;font-size: 11px;&quot;&gt;c: 1&lt;/div&gt;" style="text;html=1;align=center;verticalAlign=middle;whiteSpace=wrap;rounded=0;fontColor=#000000;strokeColor=default;fontSize=11;" parent="1" vertex="1">
          <mxGeometry x="360" y="400" width="80" height="40" as="geometry" />
        </mxCell>
        <mxCell id="GSHHPHuIhnTSmaOaYL3V-31" style="edgeStyle=orthogonalEdgeStyle;rounded=0;orthogonalLoop=1;jettySize=auto;html=1;" parent="1" source="GSHHPHuIhnTSmaOaYL3V-13" target="GSHHPHuIhnTSmaOaYL3V-25" edge="1">
          <mxGeometry relative="1" as="geometry" />
        </mxCell>
        <mxCell id="GSHHPHuIhnTSmaOaYL3V-13" value="a: 2&lt;div style=&quot;font-size: 11px;&quot;&gt;b: 2&lt;/div&gt;&lt;div style=&quot;font-size: 11px;&quot;&gt;c: 1&lt;/div&gt;" style="text;html=1;align=center;verticalAlign=middle;whiteSpace=wrap;rounded=0;fontColor=#000000;strokeColor=default;fontSize=11;" parent="1" vertex="1">
          <mxGeometry x="360" y="440" width="80" height="40" as="geometry" />
        </mxCell>
        <mxCell id="GSHHPHuIhnTSmaOaYL3V-32" style="edgeStyle=orthogonalEdgeStyle;rounded=0;orthogonalLoop=1;jettySize=auto;html=1;entryX=0;entryY=0.5;entryDx=0;entryDy=0;" parent="1" source="GSHHPHuIhnTSmaOaYL3V-15" target="GSHHPHuIhnTSmaOaYL3V-26" edge="1">
          <mxGeometry relative="1" as="geometry" />
        </mxCell>
        <mxCell id="GSHHPHuIhnTSmaOaYL3V-15" value="a: 2&lt;div style=&quot;font-size: 11px;&quot;&gt;b: 2&lt;/div&gt;&lt;div style=&quot;font-size: 11px;&quot;&gt;c: 2&lt;/div&gt;" style="text;html=1;align=center;verticalAlign=middle;whiteSpace=wrap;rounded=0;fontColor=#000000;strokeColor=default;fontSize=11;" parent="1" vertex="1">
          <mxGeometry x="360" y="480" width="80" height="40" as="geometry" />
        </mxCell>
        <mxCell id="GSHHPHuIhnTSmaOaYL3V-18" value="a: 1&lt;div&gt;(t=1)&lt;/div&gt;" style="text;html=1;align=center;verticalAlign=middle;whiteSpace=wrap;rounded=0;fontColor=#000000;" parent="1" vertex="1">
          <mxGeometry x="560" y="245" width="80" height="30" as="geometry" />
        </mxCell>
        <mxCell id="GSHHPHuIhnTSmaOaYL3V-20" value="b: 1&lt;div&gt;(t=2)&lt;/div&gt;" style="text;html=1;align=center;verticalAlign=middle;whiteSpace=wrap;rounded=0;fontColor=#000000;" parent="1" vertex="1">
          <mxGeometry x="560" y="285" width="80" height="30" as="geometry" />
        </mxCell>
        <mxCell id="GSHHPHuIhnTSmaOaYL3V-21" value="c: 1&lt;div&gt;(t=3)&lt;/div&gt;" style="text;html=1;align=center;verticalAlign=middle;whiteSpace=wrap;rounded=0;fontColor=#000000;" parent="1" vertex="1">
          <mxGeometry x="560" y="325" width="80" height="30" as="geometry" />
        </mxCell>
        <mxCell id="GSHHPHuIhnTSmaOaYL3V-22" value="a: 2&lt;div&gt;(t=5)&lt;/div&gt;" style="text;html=1;align=center;verticalAlign=middle;whiteSpace=wrap;rounded=0;fontColor=#000000;" parent="1" vertex="1">
          <mxGeometry x="560" y="365" width="80" height="30" as="geometry" />
        </mxCell>
        <mxCell id="GSHHPHuIhnTSmaOaYL3V-23" value="a: 3&lt;div&gt;(t=10)&lt;/div&gt;" style="text;html=1;align=center;verticalAlign=middle;whiteSpace=wrap;rounded=0;fontColor=#000000;" parent="1" vertex="1">
          <mxGeometry x="560" y="405" width="80" height="30" as="geometry" />
        </mxCell>
        <mxCell id="GSHHPHuIhnTSmaOaYL3V-25" value="b: 2&lt;div&gt;(t=8)&lt;/div&gt;" style="text;html=1;align=center;verticalAlign=middle;whiteSpace=wrap;rounded=0;fontColor=#000000;" parent="1" vertex="1">
          <mxGeometry x="560" y="445" width="80" height="30" as="geometry" />
        </mxCell>
        <mxCell id="GSHHPHuIhnTSmaOaYL3V-26" value="c: 2&lt;div&gt;(t=30)&lt;/div&gt;" style="text;html=1;align=center;verticalAlign=middle;whiteSpace=wrap;rounded=0;fontColor=#000000;" parent="1" vertex="1">
          <mxGeometry x="560" y="485" width="80" height="30" as="geometry" />
        </mxCell>
        <mxCell id="GSHHPHuIhnTSmaOaYL3V-33" value="KeyValueStore" style="text;html=1;align=center;verticalAlign=middle;whiteSpace=wrap;rounded=0;fontColor=#994C00;fontSize=10;" parent="1" vertex="1">
          <mxGeometry x="422.5" y="205" width="65" height="30" as="geometry" />
        </mxCell>
      </root>
    </mxGraphModel>
  </diagram>
</mxfile>
